<?xml version="1.0" encoding="UTF-8" standalone="no"?>
<svg
   viewBox="0 0 484.85596 499.83945"
   version="1.1"
   id="svg4"
   sodipodi:docname="star-solid.svg"
   width="484.85596"
   height="499.83945"
   inkscape:version="1.1.2 (b8e25be833, 2022-02-05)"
   xmlns:inkscape="http://www.inkscape.org/namespaces/inkscape"
   xmlns:sodipodi="http://sodipodi.sourceforge.net/DTD/sodipodi-0.dtd"
   xmlns="http://www.w3.org/2000/svg"
   xmlns:svg="http://www.w3.org/2000/svg">
  <defs
     id="defs8" />
  <sodipodi:namedview
     id="namedview6"
     pagecolor="#ffffff"
     bordercolor="#666666"
     borderopacity="1.0"
     inkscape:pageshadow="2"
     inkscape:pageopacity="0.0"
     inkscape:pagecheckerboard="0"
     showgrid="false"
     fit-margin-top="0"
     fit-margin-left="0"
     fit-margin-right="0"
     fit-margin-bottom="0"
     inkscape:zoom="1.1476675"
     inkscape:cx="100.63891"
     inkscape:cy="273.59842"
     inkscape:window-width="1920"
     inkscape:window-height="1017"
     inkscape:window-x="-8"
     inkscape:window-y="-8"
     inkscape:window-maximized="1"
     inkscape:current-layer="svg4" />
  <!--! Font Awesome Pro 6.1.1 by @fontawesome - https://fontawesome.com License - https://fontawesome.com/license (Commercial License) Copyright 2022 Fonticons, Inc. -->
  <path
     d="m 337.90587,156.98126 127.44866,47.5469 c 10.56503,3.88634 18.08641,13.55808 19.32762,24.86739 1.22176,11.40121 -4.06889,22.37363 -13.61697,28.5963 l -115.2979,73.55785 -6.00719,139.5126 c -0.50422,11.4172 -7.36514,21.6705 -17.90314,26.24141 -10.44646,4.59044 -22.61624,2.85882 -31.30404,-4.46866 L 196.31882,404.81341 65.513211,442.69792 c -10.99804,3.12824 -22.817509,-0.25738 -30.500339,-8.71503 -7.682831,-8.45766 -9.886555,-20.64457 -5.6283,-31.26098 L 80.440281,272.81876 4.9046167,158.55355 c -6.209749,-9.58402 -6.559322,-21.75958 -0.840672,-31.68031 5.690031,-9.83079 16.4535823,-15.6021 27.7627233,-14.82238 L 167.41739,120.61378 252.13754,11.596567 C 259.13427,2.5093454 270.75022,-1.7289594 281.92078,0.65387217 293.18292,3.0562354 302.07686,11.669576 304.7857,22.827128 Z"
     id="path2"
     style="opacity:1;fill:#facc15;fill-opacity:1;stroke-width:0.937741" />
</svg>
